<?xml version="1.0" encoding="utf-8"?>
<!-- Generator: Adobe Illustrator 25.2.3, SVG Export Plug-In . SVG Version: 6.00 Build 0)  -->
<svg version="1.1" id="Layer_1" xmlns="http://www.w3.org/2000/svg" xmlns:xlink="http://www.w3.org/1999/xlink" x="0px" y="0px"
	 viewBox="0 0 400 100" style="enable-background:new 0 0 400 100;" xml:space="preserve">
<style type="text/css">
	.st0{fill:#231916;}
</style>
<g>
	<g>
		<g>
			<path class="st0" d="M400.1,93.4h-9.3l-0.1-0.2l-29.5-76.9l-29.8,77h-9.3l0.1-0.3l34.6-85.8h9.4l0.1,0.2L400.1,93.4z"/>
		</g>
		<g>
			<path class="st0" d="M266.4,93.4h-8.7v-86l0.1-0.1l8.5-5.9V93.4z"/>
		</g>
		<g>
			<path class="st0" d="M163.8,95.2c-21.5,0-34-10-34.5-27.4v-0.2l8.7-1.4l0,0.3c0.3,14.2,9.6,21.3,27.7,21.3
				c8.7,0,22.4-4.7,22.4-17.1c0-7.4-5.7-12.4-17.4-15.2l-19.1-4.7c-9.1-2.3-19.5-6.7-19.5-20.9c0-2.5,0.8-24.4,29.7-24.4
				c14.9,0,30.5,7.5,31.8,24.3l0,0.2l-8.6,1.2l0-0.3C184,20.1,175,13,162,13c-6.4,0-21.2,1.6-21.2,16.8c0,6.7,4.1,10.7,12.8,12.8
				l20.9,5.2c11.1,3,22.4,8,22.4,22.8C196.8,76.3,194.4,95.2,163.8,95.2z"/>
		</g>
		<g>
			<g>
				<path class="st0" d="M9.9,93.4H0.6l0.1-0.3L35.3,7.3h7.9L9.9,93.4z"/>
			</g>
			<g>
				<path class="st0" d="M78.6,93.4h-9.3l-0.1-0.2L41.9,22.2l0-0.1L46.2,11L78.6,93.4z"/>
			</g>
		</g>
	</g>
</g>
</svg>
