<svg id="Layer_1" data-name="Layer 1" xmlns="http://www.w3.org/2000/svg" viewBox="0 0 277.95 32.23"><defs><style>.cls-1{fill:#231916;}</style></defs><polygon class="cls-1" points="0 32.23 3.74 32.23 3.74 0 0 2.21 0 32.23"/><polygon class="cls-1" points="49.63 27.44 32.27 2.21 28.43 2.21 28.43 32.23 31.91 32.23 31.92 7 49.28 32.23 53.11 32.23 53.11 2.21 49.63 2.21 49.63 27.44"/><rect class="cls-1" x="118.74" y="2.21" width="3.74" height="30.02"/><polygon class="cls-1" points="142.83 4.96 153.08 4.96 153.08 32.23 156.85 32.23 156.85 4.96 167.16 4.96 167.16 2.21 142.83 2.21 142.83 4.96"/><rect class="cls-1" x="274.22" y="2.21" width="3.73" height="30.02"/><path class="cls-1" d="M95.07,8.83c-2-1.64-5.13-2.48-9.26-2.48a56.54,56.54,0,0,0-8,.55V36.6H81.5V9.25l.23-.05a21.06,21.06,0,0,1,4.18-.33c5.24,0,8.26,2.3,8.26,6.31,0,4.35-3.2,6.86-8.76,6.86A21.25,21.25,0,0,1,83,21.91V24.5a23.14,23.14,0,0,0,2.34.1c4.32,0,7.9-1.16,10.08-3.28A8.27,8.27,0,0,0,97.89,15,7.65,7.65,0,0,0,95.07,8.83Z" transform="translate(-0.93 -4.37)"/><path class="cls-1" d="M245.22,22.13l1-.25c3.85-1.17,6.13-4,6.13-7.52a7,7,0,0,0-2.52-5.58c-2.06-1.68-5-2.43-9.56-2.43a51.65,51.65,0,0,0-8.05.58V36.6H236V9.22l.23-.06a19.81,19.81,0,0,1,4.38-.38h0c5.19.06,8.05,2.2,8.05,6s-3.11,6.13-7.9,6.13h-3.19v2.39h2.83c4.11.13,6,1.82,7.05,6.19a45.59,45.59,0,0,0,2.13,7.08h3.82a59.83,59.83,0,0,1-2.39-8A8.61,8.61,0,0,0,245.22,22.13Z" transform="translate(-0.93 -4.37)"/><polygon class="cls-1" points="194.24 2.21 183.02 32.23 186.41 32.23 196.22 5.16 196.22 5.15 196.23 5.16 201.65 20.12 192.34 20.12 191.46 22.6 202.54 22.6 206.04 32.23 209.43 32.23 198.22 2.21 194.24 2.21"/></svg>